<svg width="472" height="740" viewBox="0 0 472 740" fill="none" xmlns="http://www.w3.org/2000/svg">
<path d="M471.5 395C471.5 492.449 387.36 571.5 283.5 571.5C179.64 571.5 95.5 492.449 95.5 395C95.5 297.551 179.64 218.5 283.5 218.5C387.36 218.5 471.5 297.551 471.5 395Z" fill="#0099FF" stroke="black"/>
<path d="M150.5 304.634L151.498 271.669L436.547 280.303L214.693 479.318L416.748 485.438L415.75 518.403L130.7 509.769L352.555 310.754L150.5 304.634Z" fill="#FEFEFE"/>
<path d="M268.078 181.21H307.957V580H258.583V239.446C248.455 246.409 237.8 251.789 226.617 255.587C215.645 259.174 204.567 261.179 193.384 261.601V213.493C206.677 211.594 219.548 208.112 231.997 203.048C244.657 197.984 256.684 190.705 268.078 181.21Z" fill="black"/>
<rect x="256.481" y="274.991" width="58.6352" height="32.7808" transform="rotate(2.08934 256.481 274.991)" fill="#FEFEFE"/>
<rect x="258.63" y="480.485" width="50.5963" height="32.8274" transform="rotate(1.92414 258.63 480.485)" fill="#FEFEFE"/>
</svg>
